<?xml version="1.0" encoding="UTF-8"?>
<svg version="1.1" xmlns="http://www.w3.org/2000/svg" width="64" height="64">
<path d="M0 0 C21.12 0 42.24 0 64 0 C64 21.12 64 42.24 64 64 C42.88 64 21.76 64 0 64 C0 42.88 0 21.76 0 0 Z " fill="#FDFDFD" transform="translate(0,0)"/>
<path d="M0 0 C1.4540625 0.0309375 1.4540625 0.0309375 2.9375 0.0625 C0.74215159 9.2363723 -2.47808916 17.97646876 -5.78808594 26.79101562 C-6.6979326 29.21529761 -7.59946062 31.64255969 -8.5 34.0703125 C-9.07504163 35.61215798 -9.65054503 37.15383133 -10.2265625 38.6953125 C-10.49634918 39.42122589 -10.76613586 40.14713928 -11.0440979 40.89505005 C-12.94666677 45.94666677 -12.94666677 45.94666677 -14.0625 47.0625 C-16.06208364 47.10330783 -18.06295254 47.10504356 -20.0625 47.0625 C-19.4074804 41.61847384 -17.65419594 36.85043129 -15.71875 31.76171875 C-15.38959595 30.88473831 -15.06044189 30.00775787 -14.72131348 29.10420227 C-14.0279085 27.26013911 -13.33185243 25.41707088 -12.63330078 23.57495117 C-11.56036955 20.74437953 -10.49634349 17.91057987 -9.43359375 15.07617188 C-8.75833118 13.28365869 -8.08256759 11.49133414 -7.40625 9.69921875 C-7.08644165 8.84825119 -6.7666333 7.99728363 -6.43713379 7.12052917 C-3.75976471 0.07672989 -3.75976471 0.07672989 0 0 Z " fill="#0A0A0A" transform="translate(53.0625,8.9375)"/>
<path d="M0 0 C2.8125 2 2.8125 2 5 4 C5.99 4 6.98 4 8 4 C8.33 2.68 8.66 1.36 9 0 C10.65 0 12.3 0 14 0 C14.32152515 3.53677664 14.4131192 5.3962104 12.375 8.375 C9.22992985 10.5268901 7.74825668 10.6746862 4 10 C1.83907843 8.48787812 -0.02274436 6.75756057 -2 5 C-2.99 5 -3.98 5 -5 5 C-5.33 6.65 -5.66 8.3 -6 10 C-7.65 10 -9.3 10 -11 10 C-11.35706695 3.69181722 -11.35706695 3.69181722 -10 1.0625 C-6.76300255 -0.6571549 -3.5240201 -0.65515051 0 0 Z " fill="#101010" transform="translate(18,28)"/>
</svg>
